<svg xmlns="http://www.w3.org/2000/svg" viewBox="0 0 200 200" width="200" height="200">
  <!-- Eagle head silhouette -->
  <path d="M100,40 C60,40 30,70 30,100 C30,130 60,160 100,160 C140,160 170,130 170,100 C170,70 140,40 100,40 Z" 
        fill="#000000" stroke="none"/>
  
  <!-- Eye -->
  <circle cx="120" cy="90" r="8" fill="#FFFFFF"/>
  <circle cx="120" cy="90" r="4" fill="#000000"/>
  
  <!-- Beak -->
  <polygon points="140,100 160,100 150,120" fill="#000000"/>
  
  <!-- Feather details -->
  <path d="M80,50 Q70,60 80,70" stroke="#FFFFFF" stroke-width="2" fill="none"/>
  <path d="M85,55 Q75,65 85,75" stroke="#FFFFFF" stroke-width="2" fill="none"/>
  
  <!-- Neck feathers -->
  <path d="M60,110 Q50,120 60,130" stroke="#FFFFFF" stroke-width="2" fill="none"/>
  <path d="M65,115 Q55,125 65,135" stroke="#FFFFFF" stroke-width="2" fill="none"/>
</svg>